<svg width="52" height="51" viewBox="0 0 52 51" fill="none" xmlns="http://www.w3.org/2000/svg">
<path d="M6.36139 1.00478L45.925 1.00478C47.4556 1.00478 51 2.45498 51 6.32216L51 23.9662C51 25.8998 50.5167 27.35 47.375 27.35H44.9583C42.5417 27.35 42.0583 25.4164 42.0583 23.9662L42.0583 13.0897C42.0583 12.3636 41.9974 12.1959 41.8167 11.8812C41.636 11.5666 41.0917 11.3979 40.7422 11.3979L33.3583 11.3979C32.3917 11.3979 31.9083 11.3979 31.9083 12.848L31.9083 23.9662C31.9889 24.8524 31.6183 26.6249 29.4917 26.6249H25.3833C24.6583 26.6249 22.725 26.3832 22.725 23.9662L22.725 18.6488V12.848C22.725 12.3646 22.2417 11.3979 21.275 11.3979L7.38846 11.3979C3.32528 11.3979 1.7 9.87612 1.7 7.7255V6.11253V4.23072C1.97088 0.735946 6.36139 1.00478 6.36139 1.00478Z" fill="#2AB2E2"/>
<path d="M51 6.32216C51 2.45497 47.4556 1.00478 45.925 1.00478L6.36138 1.00478C6.36138 1.00478 1.97088 0.735946 1.7 4.23072V6.11253V7.7255C1.7 9.87612 3.32528 11.3979 7.38846 11.3979M51 6.32216C51 10.1894 51 19.5351 51 23.9662M51 6.32216L51 23.9662M51 23.9662C51 25.8998 50.5167 27.35 47.375 27.35H44.9583C42.5417 27.35 42.0583 25.4164 42.0583 23.9662L42.0583 13.0897C42.0583 12.3636 41.9974 12.1959 41.8167 11.8812C41.636 11.5666 41.0917 11.3979 40.7422 11.3979L33.3583 11.3979C32.3917 11.3979 31.9083 11.3979 31.9083 12.848L31.9083 23.9662C31.9889 24.8524 31.6183 26.6249 29.4917 26.6249M29.4917 26.6249C27.365 26.6249 26.0278 26.6249 25.3833 26.6249M29.4917 26.6249H25.3833M25.3833 26.6249C24.6583 26.6249 22.725 26.3832 22.725 23.9662L22.725 18.6488V12.848C22.725 12.3646 22.2417 11.3979 21.275 11.3979M21.275 11.3979C20.3083 11.3979 12.3829 11.3979 7.38846 11.3979M21.275 11.3979L7.38846 11.3979" stroke="#2AB2E2"/>
<ellipse cx="6.07143" cy="44.3499" rx="6.07143" ry="5.95" fill="#93D8F0"/>
<ellipse cx="25.5" cy="44.3499" rx="6.07143" ry="5.95" fill="#93D8F0"/>
<ellipse cx="44.9286" cy="44.3499" rx="6.07143" ry="5.95" fill="#93D8F0"/>
</svg>
