<svg width="74" height="74" viewBox="0 0 74 74" fill="none" xmlns="http://www.w3.org/2000/svg">
<g filter="url(#filter0_d)">
<circle cx="37" cy="33" r="33" fill="white"/>
<path d="M27.5062 19.6582L47.5472 19.6582C48.3225 19.6582 50.1179 20.3957 50.1179 22.3623L50.1179 31.3351C50.1179 32.3184 49.8731 33.0559 48.2817 33.0559H47.0575C45.8333 33.0559 45.5885 32.0726 45.5885 31.3351V25.8039C45.5885 25.4347 45.5576 25.3494 45.4661 25.1894C45.3746 25.0293 45.0988 24.9435 44.9218 24.9435L41.1815 24.9435C40.6918 24.9435 40.447 24.9435 40.447 25.681V31.3351C40.4878 31.7858 40.3001 32.6872 39.2228 32.6872H37.1418C36.7745 32.6872 35.7952 32.5643 35.7952 31.3351V28.631V25.681C35.7952 25.4352 35.5504 24.9435 35.0607 24.9435L28.0264 24.9435C25.9682 24.9435 25.1449 24.1697 25.1449 23.076V22.2557V21.2987C25.2822 19.5215 27.5062 19.6582 27.5062 19.6582Z" fill="#2AB2E2"/>
<path d="M50.1179 22.3623C50.1179 20.3957 48.3225 19.6582 47.5472 19.6582L27.5062 19.6582C27.5062 19.6582 25.2822 19.5215 25.1449 21.2987V22.2557V23.076C25.1449 24.1697 25.9682 24.9435 28.0264 24.9435M50.1179 22.3623C50.1179 24.329 50.1179 29.0817 50.1179 31.3351M50.1179 22.3623L50.1179 31.3351M50.1179 31.3351C50.1179 32.3184 49.8731 33.0559 48.2817 33.0559H47.0575C45.8333 33.0559 45.5885 32.0726 45.5885 31.3351V25.8039C45.5885 25.4347 45.5576 25.3494 45.4661 25.1894C45.3746 25.0293 45.0988 24.9435 44.9218 24.9435L41.1815 24.9435C40.6918 24.9435 40.447 24.9435 40.447 25.681V31.3351C40.4878 31.7858 40.3001 32.6872 39.2228 32.6872M39.2228 32.6872C38.1456 32.6872 37.4682 32.6872 37.1418 32.6872M39.2228 32.6872H37.1418M37.1418 32.6872C36.7745 32.6872 35.7952 32.5643 35.7952 31.3351V28.631V25.681C35.7952 25.4352 35.5504 24.9435 35.0607 24.9435M35.0607 24.9435C34.571 24.9435 30.5564 24.9435 28.0264 24.9435M35.0607 24.9435L28.0264 24.9435" stroke="#2AB2E2"/>
<ellipse cx="27.2107" cy="41.7171" rx="3.07915" ry="3.01504" fill="#2AB2E2" fill-opacity="0.51"/>
<ellipse cx="37.064" cy="41.7171" rx="3.07915" ry="3.01504" fill="#2AB2E2" fill-opacity="0.51"/>
<ellipse cx="46.9173" cy="41.7171" rx="3.07915" ry="3.01504" fill="#2AB2E2" fill-opacity="0.51"/>
</g>
<defs>
<filter id="filter0_d" x="0" y="0" width="74" height="74" filterUnits="userSpaceOnUse" color-interpolation-filters="sRGB">
<feFlood flood-opacity="0" result="BackgroundImageFix"/>
<feColorMatrix in="SourceAlpha" type="matrix" values="0 0 0 0 0 0 0 0 0 0 0 0 0 0 0 0 0 0 127 0"/>
<feOffset dy="4"/>
<feGaussianBlur stdDeviation="2"/>
<feColorMatrix type="matrix" values="0 0 0 0 0 0 0 0 0 0 0 0 0 0 0 0 0 0 0.25 0"/>
<feBlend mode="normal" in2="BackgroundImageFix" result="effect1_dropShadow"/>
<feBlend mode="normal" in="SourceGraphic" in2="effect1_dropShadow" result="shape"/>
</filter>
</defs>
</svg>
