<svg width="66" height="66" viewBox="0 0 66 66" fill="none" xmlns="http://www.w3.org/2000/svg">
<circle cx="33" cy="33" r="33" fill="white"/>
<path d="M23.5059 19.6582L43.5469 19.6582C44.3222 19.6582 46.1177 20.3957 46.1177 22.3624L46.1177 31.3351C46.1177 32.3185 45.8728 33.056 44.2814 33.056H43.0573C41.8331 33.056 41.5883 32.0726 41.5883 31.3351V25.804C41.5883 25.4347 41.5574 25.3494 41.4658 25.1894C41.3743 25.0294 41.0986 24.9436 40.9216 24.9436L37.1813 24.9436C36.6916 24.9436 36.4468 24.9436 36.4468 25.6811V31.3351C36.4876 31.7858 36.2999 32.6872 35.2226 32.6872H33.1415C32.7743 32.6872 31.7949 32.5643 31.7949 31.3351L31.7949 28.631V25.6811C31.7949 25.4352 31.5501 24.9436 31.0604 24.9436L24.0262 24.9436C21.968 24.9436 21.1447 24.1697 21.1447 23.076V22.2557V21.2988C21.2819 19.5215 23.5059 19.6582 23.5059 19.6582Z" fill="#2AB2E2"/>
<path d="M46.1177 22.3624C46.1177 20.3957 44.3222 19.6582 43.5469 19.6582L23.5059 19.6582C23.5059 19.6582 21.2819 19.5215 21.1447 21.2988V22.2557V23.076C21.1447 24.1697 21.968 24.9436 24.0262 24.9436M46.1177 22.3624C46.1177 24.329 46.1177 29.0817 46.1177 31.3351M46.1177 22.3624L46.1177 31.3351M46.1177 31.3351C46.1177 32.3185 45.8728 33.056 44.2814 33.056H43.0573C41.8331 33.056 41.5883 32.0726 41.5883 31.3351V25.804C41.5883 25.4347 41.5574 25.3494 41.4658 25.1894C41.3743 25.0294 41.0986 24.9436 40.9216 24.9436L37.1813 24.9436C36.6916 24.9436 36.4468 24.9436 36.4468 25.6811V31.3351C36.4876 31.7858 36.2999 32.6872 35.2226 32.6872M35.2226 32.6872C34.1453 32.6872 33.468 32.6872 33.1415 32.6872M35.2226 32.6872H33.1415M33.1415 32.6872C32.7743 32.6872 31.7949 32.5643 31.7949 31.3351L31.7949 28.631V25.6811C31.7949 25.4352 31.5501 24.9436 31.0604 24.9436M31.0604 24.9436C30.5708 24.9436 26.5561 24.9436 24.0262 24.9436M31.0604 24.9436L24.0262 24.9436" stroke="#2AB2E2"/>
<ellipse cx="23.2105" cy="41.7171" rx="3.07915" ry="3.01504" fill="#93D8F0"/>
<ellipse cx="33.0635" cy="41.7171" rx="3.07915" ry="3.01504" fill="#93D8F0"/>
<ellipse cx="42.917" cy="41.7171" rx="3.07915" ry="3.01504" fill="#93D8F0"/>
</svg>
