<svg width="46" height="48" viewBox="0 0 46 48" fill="none" xmlns="http://www.w3.org/2000/svg">
<path d="M6.21443 1.004L39.4382 1.004C40.7235 1.004 43.7 2.21751 43.7 5.45353L43.7 20.2179C43.7 21.8359 43.2941 23.0494 40.6559 23.0494H38.6265C36.5971 23.0494 36.1912 21.4314 36.1912 20.2179L36.1912 11.1166C36.1912 10.509 36.14 10.3686 35.9882 10.1053C35.8365 9.84198 35.3794 9.7008 35.0859 9.7008L28.8853 9.7008C28.0735 9.7008 27.6676 9.7008 27.6676 10.9143L27.6676 20.2179C27.7353 20.9595 27.4241 22.4426 25.6382 22.4426H22.1882C21.5794 22.4426 19.9559 22.2404 19.9559 20.2179L19.9559 15.7683V10.9143C19.9559 10.5098 19.55 9.7008 18.7382 9.7008L7.07692 9.7008C3.66483 9.7008 2.3 8.42744 2.3 6.62782V5.2781V3.70343C2.52747 0.779043 6.21443 1.004 6.21443 1.004Z" fill="white"/>
<path d="M43.7 5.45353C43.7 2.21751 40.7235 1.004 39.4382 1.004L6.21443 1.004C6.21443 1.004 2.52747 0.779043 2.3 3.70343V5.2781V6.62782C2.3 8.42744 3.66483 9.7008 7.07692 9.7008M43.7 5.45353C43.7 8.68955 43.7 16.5099 43.7 20.2179M43.7 5.45353L43.7 20.2179M43.7 20.2179C43.7 21.8359 43.2941 23.0494 40.6559 23.0494H38.6265C36.5971 23.0494 36.1912 21.4314 36.1912 20.2179L36.1912 11.1166C36.1912 10.509 36.14 10.3686 35.9882 10.1053C35.8365 9.84198 35.3794 9.7008 35.0859 9.7008L28.8853 9.7008C28.0735 9.7008 27.6676 9.7008 27.6676 10.9143L27.6676 20.2179C27.7353 20.9595 27.4241 22.4426 25.6382 22.4426M25.6382 22.4426C23.8524 22.4426 22.7294 22.4426 22.1882 22.4426M25.6382 22.4426H22.1882M22.1882 22.4426C21.5794 22.4426 19.9559 22.2404 19.9559 20.2179L19.9559 15.7683V10.9143C19.9559 10.5098 19.55 9.7008 18.7382 9.7008M18.7382 9.7008C17.9265 9.7008 11.271 9.7008 7.07692 9.7008M18.7382 9.7008L7.07692 9.7008" stroke="white"/>
<path d="M43.7 5.45353C43.7 2.21751 40.7235 1.004 39.4382 1.004L6.21443 1.004C6.21443 1.004 2.52747 0.779043 2.3 3.70343V5.2781V6.62782C2.3 8.42744 3.66483 9.7008 7.07692 9.7008M43.7 5.45353C43.7 8.68955 43.7 16.5099 43.7 20.2179M43.7 5.45353L43.7 20.2179M43.7 20.2179C43.7 21.8359 43.2941 23.0494 40.6559 23.0494H38.6265C36.5971 23.0494 36.1912 21.4314 36.1912 20.2179L36.1912 11.1166C36.1912 10.509 36.14 10.3686 35.9882 10.1053C35.8365 9.84198 35.3794 9.7008 35.0859 9.7008L28.8853 9.7008C28.0735 9.7008 27.6676 9.7008 27.6676 10.9143L27.6676 20.2179C27.7353 20.9595 27.4241 22.4426 25.6382 22.4426M25.6382 22.4426C23.8524 22.4426 22.7294 22.4426 22.1882 22.4426M25.6382 22.4426H22.1882M22.1882 22.4426C21.5794 22.4426 19.9559 22.2404 19.9559 20.2179L19.9559 15.7683V10.9143C19.9559 10.5098 19.55 9.7008 18.7382 9.7008M18.7382 9.7008C17.9265 9.7008 11.271 9.7008 7.07692 9.7008M18.7382 9.7008L7.07692 9.7008" stroke="url(#paint0_linear)"/>
<ellipse cx="5.47708" cy="42.4877" rx="5.4625" ry="5.51234" fill="white"/>
<ellipse cx="23" cy="42.4877" rx="5.4625" ry="5.51234" fill="white"/>
<ellipse cx="40.5374" cy="42.4877" rx="5.4625" ry="5.51234" fill="white"/>
<defs>
<linearGradient id="paint0_linear" x1="43.7" y1="12.0247" x2="2.3" y2="12.0247" gradientUnits="userSpaceOnUse">
<stop stop-color="white"/>
<stop offset="1" stop-color="white" stop-opacity="0"/>
</linearGradient>
</defs>
</svg>
